<?xml version="1.0" encoding="UTF-8"?>
<svg id="Layer_2" xmlns="http://www.w3.org/2000/svg" viewBox="0 0 89.43 128.09">
  <defs>
    <style>
      .cls-1 {
        fill: #fff;
      }
    </style>
  </defs>
  <g id="Layer_1-2" data-name="Layer_1">
    <g>
      <g>
        <path class="cls-1" d="M0,120.25c0-3.69,1.32-6.93,2.72-9.02,1.75-2.61,5.04-5.52,11.31-5.52,1.21,0,2.41.07,3.62.23.61.07.85.49.77,1.44l-.18,2.12c-.07.72-.2,1.27-.88,1.18-.92-.13-1.95-.2-2.92-.2-2.81,0-5.68.75-7.61,3.63-1.03,1.54-1.69,3.72-1.69,5.59,0,2.88,1.32,4.12,3.18,4.12.64,0,1.29-.1,1.78-.26l1.58-4.8c.29-.82.53-1.21,1.16-1.21h3.25c.55,0,.7.62.44,1.41l-2.48,7.38c-.26.78-.68,1.04-1.14,1.18-1.23.36-3.51.59-5.42.59C3.14,128.09,0,125.74,0,120.25Z"/>
        <path class="cls-1" d="M34.23,106.11c.68,0,.79.59.75,1.47l-1.03,18.92c-.04.95-.42,1.21-1.01,1.21h-2.85c-.5,0-.81-.39-.75-1.14l.2-2.52h-7.02c-.39.82-.79,1.63-1.16,2.45-.44.95-.61,1.21-1.18,1.21h-3.6c-.53,0-.75-.69-.39-1.44,3.09-6.6,8.25-14.73,12.5-19.47.44-.49.7-.69,1.27-.69h4.28ZM29.89,119.63l.72-9.02h-.07c-2.04,2.58-3.99,5.72-5.77,9.02h5.11Z"/>
        <path class="cls-1" d="M36.14,127.7c-.53,0-.68-.65-.42-1.44l6.42-18.95c.29-.82.53-1.21,1.16-1.21h3.14c.53,0,1.03.49,1.14,1.44.22,2.03.53,5.29.7,7.32,1.49-2.06,4.78-6.24,6.29-7.97.44-.49.81-.78,1.38-.78h4.12c.66,0,.61.85.37,1.57l-6.36,18.82c-.31.92-.59,1.21-1.16,1.21h-3.18c-.5,0-.72-.56-.42-1.44l3.82-11.27h-.07c-1.18,1.4-3.79,4.83-5.02,6.57-.7.98-1.38,1.86-2.15,1.86-.99,0-1.29-.82-1.47-2.45-.15-1.5-.46-4.28-.59-5.26h-.04l-3.71,10.78c-.31.88-.59,1.21-1.16,1.21h-2.81Z"/>
        <path class="cls-1" d="M58.11,127.7c-.53,0-.7-.59-.42-1.44l6.45-18.95c.29-.82.53-1.21,1.16-1.21h9.98c.59,0,.7.62.42,1.44l-.64,1.86c-.31.92-.59,1.21-1.16,1.21h-5.96l-1.23,3.63h5.5c.5,0,.75.59.44,1.47l-.64,1.83c-.31.88-.59,1.21-1.16,1.21h-5.66l-1.51,4.44h7.26c.5,0,.75.59.44,1.47l-.66,1.83c-.33.88-.59,1.21-1.16,1.21h-11.45Z"/>
        <path class="cls-1" d="M88.15,107.38l-.15,2.03c-.04.69-.2,1.24-.72,1.18-.61-.07-1.71-.2-2.57-.2-1.38,0-2.68.36-2.68,1.8,0,2.68,3.62,4.05,3.62,8.49,0,5.26-4.01,7.42-8.75,7.42-1.16,0-2.08-.1-2.87-.2-.7-.1-.81-.49-.75-1.47l.15-2.09c.04-.69.2-1.24.72-1.18.66.1,1.56.2,2.85.2,2.28,0,3.35-.52,3.35-2.06,0-2.42-3.66-3.76-3.66-8.23,0-4.77,3.38-7.35,7.85-7.35.99,0,2.06.07,2.85.2.7.1.83.49.75,1.47Z"/>
      </g>
      <g>
        <path class="cls-1" d="M17.56,18.64V1.1c0-.61-.49-1.1-1.1-1.1H1.1C.49,0,0,.49,0,1.1v41.51c0,.61.49,1.1,1.1,1.1h38.01c.61,0,1.1-.49,1.1-1.1v-20.62c0-3.5-3.23-6.12-6.66-5.39l-14.67,3.12c-.68.15-1.32-.38-1.32-1.07Z"/>
        <path class="cls-1" d="M88.3,49.76h-5.09c-1.75,0-3.46.53-4.9,1.53l-11.86,8.18v-8.58c0-.62-.5-1.13-1.13-1.13h-15.3c-.62,0-1.13.5-1.13,1.13v41.3c0,.62.5,1.13,1.13,1.13h15.3c.62,0,1.13-.5,1.13-1.13v-7.57s13.49,8.53,13.49,8.53c.18.11.39.17.6.17h7.76c.62,0,1.13-.5,1.13-1.13v-16.54c0-1.74-1.26-3.23-2.97-3.52l-12.94-2.2,15.13-4.74c.47-.15.79-.58.79-1.08v-13.23c0-.62-.5-1.13-1.13-1.13Z"/>
        <path class="cls-1" d="M3.09,63.9C1.38,63.9,0,65.43,0,67.31v22.6c0,1.88,1.38,3.4,3.09,3.4h34.03c1.71,0,3.09-1.52,3.09-3.4v-22.6c0-1.88-1.38-3.4-3.09-3.4H3.09Z"/>
        <path class="cls-1" d="M86.17,24.74l-25.35-2.53h0v-.36l20.43-2.21c1.75-.33,2.03-2.9-.08-3.58l-20.34-2.73h0l25.18-4.81c1.71,0,3.09-1.38,3.09-3.09v-2.34C89.1,1.38,87.71,0,86.01,0h-34.03c-1.71,0-3.09,1.38-3.09,3.09v2.34c0,.2.02.39.06.58-.04.19-.06.38-.06.58v34.03c0,1.71,1.38,3.09,3.09,3.09h34.19c1.71,0,3.09-1.38,3.09-3.09v-12.78c0-1.71-1.38-3.09-3.09-3.09Z"/>
        <path class="cls-1" d="M3.09,49.69C1.38,49.69,0,51.08,0,52.79v3.33C0,57.82,1.38,59.2,3.09,59.2h34.03c1.71,0,3.09-1.38,3.09-3.09v-3.33c0-1.71-1.38-3.09-3.09-3.09H3.09Z"/>
      </g>
    </g>
  </g>
</svg>