<?xml version="1.0" encoding="UTF-8"?>
<svg id="Layer_2" xmlns="http://www.w3.org/2000/svg" viewBox="0 0 89.43 93.32">
  <defs>
    <style>
      .cls-1 {
        fill: #231f20;
      }
    </style>
  </defs>
  <g id="Layer_1-2" data-name="Layer_1">
    <g>
      <path class="cls-1" d="M17.56,18.64V1.1c0-.61-.49-1.1-1.1-1.1H1.1C.49,0,0,.49,0,1.1v41.51c0,.61.49,1.1,1.1,1.1h38.01c.61,0,1.1-.49,1.1-1.1v-20.62c0-3.5-3.23-6.12-6.66-5.39l-14.67,3.12c-.68.15-1.32-.38-1.32-1.07Z"/>
      <path class="cls-1" d="M88.3,49.76h-5.09c-1.75,0-3.46.53-4.9,1.53l-11.86,8.18v-8.58c0-.62-.5-1.13-1.13-1.13h-15.3c-.62,0-1.13.5-1.13,1.13v41.3c0,.62.5,1.13,1.13,1.13h15.3c.62,0,1.13-.5,1.13-1.13v-7.57s13.49,8.53,13.49,8.53c.18.11.39.17.6.17h7.76c.62,0,1.13-.5,1.13-1.13v-16.54c0-1.74-1.26-3.23-2.97-3.52l-12.94-2.2,15.13-4.74c.47-.15.79-.58.79-1.08v-13.23c0-.62-.5-1.13-1.13-1.13Z"/>
      <path class="cls-1" d="M3.09,63.9C1.38,63.9,0,65.43,0,67.31v22.6c0,1.88,1.38,3.4,3.09,3.4h34.03c1.71,0,3.09-1.52,3.09-3.4v-22.6c0-1.88-1.38-3.4-3.09-3.4H3.09Z"/>
      <path class="cls-1" d="M86.17,24.74l-25.35-2.53h0v-.36l20.43-2.21c1.75-.33,2.03-2.9-.08-3.58l-20.34-2.73h0l25.18-4.81c1.71,0,3.09-1.38,3.09-3.09v-2.34C89.1,1.38,87.71,0,86.01,0h-34.03c-1.71,0-3.09,1.38-3.09,3.09v2.34c0,.2.02.39.06.58-.04.19-.06.38-.06.58v34.03c0,1.71,1.38,3.09,3.09,3.09h34.19c1.71,0,3.09-1.38,3.09-3.09v-12.78c0-1.71-1.38-3.09-3.09-3.09Z"/>
      <path class="cls-1" d="M3.09,49.69C1.38,49.69,0,51.08,0,52.79v3.33C0,57.82,1.38,59.2,3.09,59.2h34.03c1.71,0,3.09-1.38,3.09-3.09v-3.33c0-1.71-1.38-3.09-3.09-3.09H3.09Z"/>
    </g>
  </g>
</svg>